<svg width="256" height="256" viewBox="0 0 256 256" fill="none" xmlns="http://www.w3.org/2000/svg">
  <rect width="256" height="256" rx="64" fill="#EEF2FF"/>
  <path d="M62 155C62 113.026 96.0264 79 138 79H162C173.046 79 182 87.9543 182 99V118C182 129.046 173.046 138 162 138H134V177H84C71.8497 177 62 167.15 62 155Z" fill="#4F46E5"/>
  <path d="M112 106C112 97.1634 119.163 90 128 90H153C161.837 90 169 97.1634 169 106C169 114.837 161.837 122 153 122H128C119.163 122 112 114.837 112 106Z" fill="#312E81"/>
  <circle cx="142" cy="105" r="7" fill="white"/>
  <path d="M78 171C94.5 155.5 108.5 149 124.5 149C143.5 149 158.5 158.5 174 177" stroke="#312E81" stroke-width="12" stroke-linecap="round"/>
  <path d="M190.5 63L198.3 78.8L216 81.4L203.2 93.9L206.2 111.5L190.5 103.2L174.8 111.5L177.8 93.9L165 81.4L182.7 78.8L190.5 63Z" fill="#F59E0B"/>
</svg>
